# xmcd
#
# Track frame offsets: 
#        150
#        1946
#        21848
#        48576
#        67303
#        81482
#
# Disc length: 1274 seconds
#
# Revision: 0
# Processed by: cddbd v1.5.2PL0 Copyright (c) Steve Scherf et al.
# Submitted via: ExactAudioCopy v0.95b3
#
DISCID=4d04f806
DTITLE=Led Zeppelin  - Lost BBC Sessions - 1969-03-19 London UK  FLAC
DYEAR=1900
DGENRE=
TTITLE0=Introduction
TTITLE1=What Is and What Should Never Be
TTITLE2=I Can't Quit You Baby
TTITLE3=You Shook Me(cut)
TTITLE4=Sunshine Woman
TTITLE5=Sunshine Woman
EXTD=
EXTT0=
EXTT1=
EXTT2=
EXTT3=
EXTT4=
EXTT5=
PLAYORDER=
